<svg width="205" height="407" viewBox="0 0 205 407" fill="none" xmlns="http://www.w3.org/2000/svg">
<g filter="url(#filter0_d_13_5)">
<path d="M174 355.165C103.634 338.72 51 272.4 51 193.083C51 113.766 103.634 47.4446 174 31V355.165Z" fill="white"/>
</g>
<path d="M125.984 265.624V271.223C125.26 271.325 124.616 271.534 124.054 271.849C123.483 272.165 122.997 272.57 122.597 273.064C122.196 273.558 121.889 274.129 121.676 274.777C121.463 275.416 121.357 276.111 121.357 276.861C121.357 278.216 121.693 279.396 122.366 280.402C123.031 281.408 124.003 282.187 125.281 282.741C126.551 283.295 128.094 283.572 129.909 283.572C131.776 283.572 133.344 283.295 134.614 282.741C135.884 282.179 136.842 281.395 137.49 280.389C138.138 279.384 138.462 278.22 138.462 276.899C138.462 276.158 138.364 275.472 138.168 274.841C137.972 274.202 137.686 273.635 137.311 273.141C136.928 272.646 136.463 272.237 135.918 271.913C135.372 271.581 134.75 271.351 134.051 271.223L134.077 265.624C135.278 265.768 136.437 266.131 137.554 266.71C138.662 267.281 139.655 268.053 140.533 269.024C141.402 269.987 142.092 271.138 142.604 272.476C143.107 273.805 143.358 275.31 143.358 276.989C143.358 279.324 142.83 281.412 141.773 283.253C140.716 285.085 139.186 286.534 137.183 287.599C135.18 288.656 132.756 289.185 129.909 289.185C127.054 289.185 124.625 288.648 122.622 287.574C120.619 286.5 119.094 285.043 118.045 283.202C116.989 281.361 116.46 279.29 116.46 276.989C116.46 275.472 116.673 274.065 117.099 272.77C117.526 271.466 118.148 270.311 118.966 269.305C119.776 268.3 120.768 267.482 121.945 266.851C123.121 266.212 124.467 265.803 125.984 265.624ZM129.909 235.794C132.764 235.794 135.193 236.336 137.196 237.418C139.199 238.492 140.729 239.958 141.786 241.816C142.834 243.665 143.358 245.745 143.358 248.054C143.358 250.381 142.83 252.469 141.773 254.319C140.716 256.168 139.186 257.63 137.183 258.704C135.18 259.777 132.756 260.314 129.909 260.314C127.054 260.314 124.625 259.777 122.622 258.704C120.619 257.63 119.094 256.168 118.045 254.319C116.989 252.469 116.46 250.381 116.46 248.054C116.46 245.745 116.989 243.665 118.045 241.816C119.094 239.958 120.619 238.492 122.622 237.418C124.625 236.336 127.054 235.794 129.909 235.794ZM129.909 241.407C128.06 241.407 126.5 241.684 125.23 242.238C123.96 242.783 122.997 243.554 122.341 244.552C121.685 245.549 121.357 246.716 121.357 248.054C121.357 249.392 121.685 250.56 122.341 251.557C122.997 252.554 123.96 253.33 125.23 253.884C126.5 254.429 128.06 254.702 129.909 254.702C131.759 254.702 133.318 254.429 134.588 253.884C135.858 253.33 136.821 252.554 137.477 251.557C138.134 250.56 138.462 249.392 138.462 248.054C138.462 246.716 138.134 245.549 137.477 244.552C136.821 243.554 135.858 242.783 134.588 242.238C133.318 241.684 131.759 241.407 129.909 241.407ZM116.818 207.995H143V212.776L126.521 224.167V224.358H143V229.894H116.818V225.036L133.284 213.735V213.505H116.818V207.995ZM121.382 202.618H116.818V181.116H121.382V189.131H143V194.603H121.382V202.618ZM143 174.461V180.393L116.818 171.354V164.221L143 155.195V161.127L122.801 167.685V167.89L143 174.461ZM132.709 174.832V160.82H137.03V174.832H132.709ZM125.984 128.374V133.973C125.26 134.075 124.616 134.284 124.054 134.599C123.483 134.915 122.997 135.32 122.597 135.814C122.196 136.308 121.889 136.879 121.676 137.527C121.463 138.166 121.357 138.861 121.357 139.611C121.357 140.966 121.693 142.146 122.366 143.152C123.031 144.158 124.003 144.938 125.281 145.491C126.551 146.045 128.094 146.322 129.909 146.322C131.776 146.322 133.344 146.045 134.614 145.491C135.884 144.929 136.842 144.145 137.49 143.139C138.138 142.134 138.462 140.97 138.462 139.649C138.462 138.908 138.364 138.222 138.168 137.591C137.972 136.952 137.686 136.385 137.311 135.891C136.928 135.396 136.463 134.987 135.918 134.663C135.372 134.331 134.75 134.101 134.051 133.973L134.077 128.374C135.278 128.518 136.437 128.881 137.554 129.46C138.662 130.031 139.655 130.803 140.533 131.774C141.402 132.737 142.092 133.888 142.604 135.226C143.107 136.555 143.358 138.06 143.358 139.739C143.358 142.074 142.83 144.162 141.773 146.003C140.716 147.835 139.186 149.284 137.183 150.349C135.18 151.406 132.756 151.935 129.909 151.935C127.054 151.935 124.625 151.398 122.622 150.324C120.619 149.25 119.094 147.793 118.045 145.952C116.989 144.111 116.46 142.04 116.46 139.739C116.46 138.222 116.673 136.815 117.099 135.52C117.526 134.216 118.148 133.061 118.966 132.055C119.776 131.05 120.768 130.232 121.945 129.601C123.121 128.962 124.467 128.553 125.984 128.374ZM121.382 123.601H116.818V102.098H121.382V110.114H143V115.586H121.382V123.601Z" fill="black"/>
<defs>
<filter id="filter0_d_13_5" x="0" y="0" width="205" height="406.165" filterUnits="userSpaceOnUse" color-interpolation-filters="sRGB">
<feFlood flood-opacity="0" result="BackgroundImageFix"/>
<feColorMatrix in="SourceAlpha" type="matrix" values="0 0 0 0 0 0 0 0 0 0 0 0 0 0 0 0 0 0 127 0" result="hardAlpha"/>
<feMorphology radius="1" operator="dilate" in="SourceAlpha" result="effect1_dropShadow_13_5"/>
<feOffset dx="-10" dy="10"/>
<feGaussianBlur stdDeviation="20"/>
<feComposite in2="hardAlpha" operator="out"/>
<feColorMatrix type="matrix" values="0 0 0 0 0 0 0 0 0 0 0 0 0 0 0 0 0 0 0.38 0"/>
<feBlend mode="normal" in2="BackgroundImageFix" result="effect1_dropShadow_13_5"/>
<feBlend mode="normal" in="SourceGraphic" in2="effect1_dropShadow_13_5" result="shape"/>
</filter>
</defs>
</svg>
