<?xml version="1.0" encoding="UTF-8"?>
<svg id="Layer_1" data-name="Layer 1" xmlns="http://www.w3.org/2000/svg" xmlns:xlink="http://www.w3.org/1999/xlink" viewBox="0 0 1400 300">
  <defs>
    <style>
      .cls-1 {
        stroke-width: 5px;
      }

      .cls-1, .cls-2, .cls-3, .cls-4, .cls-5, .cls-6 {
        fill: none;
      }

      .cls-1, .cls-2, .cls-3, .cls-5, .cls-6 {
        stroke: #0e5dab;
        stroke-miterlimit: 10;
      }

      .cls-2 {
        stroke-width: 4px;
      }

      .cls-7 {
        fill: #044faa;
      }

      .cls-8 {
        opacity: .8;
      }

      .cls-5 {
        stroke-width: 3px;
      }

      .cls-9 {
        clip-path: url(#clippath);
      }

      .cls-6 {
        stroke-width: 2px;
      }
    </style>
    <clipPath id="clippath">
      <rect class="cls-4" width="1400" height="300"/>
    </clipPath>
  </defs>
  <g class="cls-9">
    <g class="cls-8">
      <polygon class="cls-1" points="991.31 139.07 950.03 139.07 929.39 174.82 950.03 210.57 991.31 210.57 1011.95 174.82 991.31 139.07"/>
      <polygon class="cls-5" points="1043.62 190.15 1014.95 190.15 1000.62 214.98 1014.95 239.8 1043.62 239.8 1057.95 214.98 1043.62 190.15"/>
      <polygon class="cls-1" points="1044.14 107.51 1014.43 107.51 999.57 133.25 1014.43 158.98 1044.14 158.98 1059 133.25 1044.14 107.51"/>
      <polygon class="cls-2" points="921.48 180.7 890.25 180.7 874.63 207.75 890.25 234.8 921.48 234.8 937.1 207.75 921.48 180.7"/>
      <polygon class="cls-5" points="1132.15 123.61 1073.01 123.61 1043.44 174.82 1073.01 226.04 1132.15 226.04 1161.72 174.82 1132.15 123.61"/>
      <polygon class="cls-5" points="580.44 155.9 546.33 155.9 529.28 185.44 546.33 214.98 580.44 214.98 597.49 185.44 580.44 155.9"/>
      <polygon class="cls-1" points="1448.83 -45.13 1346.97 -45.13 1296.05 43.08 1346.97 131.29 1448.83 131.29 1499.76 43.08 1448.83 -45.13"/>
      <polygon class="cls-1" points="1196.5 180.77 1169.97 180.77 1156.71 203.75 1169.97 226.72 1196.5 226.72 1209.77 203.75 1196.5 180.77"/>
      <polygon class="cls-2" points="1290.97 223.73 1212.84 223.73 1173.78 291.39 1212.84 359.05 1290.97 359.05 1330.03 291.39 1290.97 223.73"/>
      <polygon class="cls-3" points="1210.67 96.05 1167.73 96.05 1146.25 133.25 1167.73 170.44 1210.67 170.44 1232.15 133.25 1210.67 96.05"/>
      <polygon class="cls-1" points="1286.58 53.75 1243.65 53.75 1222.19 90.93 1243.65 128.11 1286.58 128.11 1308.05 90.93 1286.58 53.75"/>
      <polygon class="cls-6" points="1286.59 141.33 1243.64 141.33 1222.17 178.52 1243.64 215.72 1286.59 215.72 1308.07 178.52 1286.59 141.33"/>
      <polygon class="cls-1" points="1431.1 143.92 1343.23 143.92 1299.29 220.02 1343.23 296.12 1431.1 296.12 1475.04 220.02 1431.1 143.92"/>
      <polygon class="cls-1" points="1320.98 121.04 1302.57 121.04 1293.36 136.98 1302.57 152.93 1320.98 152.93 1330.18 136.98 1320.98 121.04"/>
      <polygon class="cls-1" points="507.88 104.08 492.01 104.08 484.08 117.81 492.01 131.55 507.88 131.55 515.81 117.81 507.88 104.08"/>
      <polygon class="cls-3" points="992.14 53.74 949.19 53.74 927.72 90.93 949.19 128.13 992.14 128.13 1013.62 90.93 992.14 53.74"/>
      <polygon class="cls-6" points="659.4 109.79 616.45 109.79 594.97 146.98 616.45 184.18 659.4 184.18 680.87 146.98 659.4 109.79"/>
      <polygon class="cls-6" points="714.01 156.33 689.17 156.33 676.75 177.84 689.17 199.35 714.01 199.35 726.43 177.84 714.01 156.33"/>
      <polygon class="cls-6" points="309.28 136.75 292.45 136.75 284.03 151.33 292.45 165.9 309.28 165.9 317.69 151.33 309.28 136.75"/>
      <polygon class="cls-6" points="707.27 71.53 678.95 71.53 664.79 96.05 678.95 120.58 707.27 120.58 721.43 96.05 707.27 71.53"/>
      <polygon class="cls-6" points="363.15 95.26 334.83 95.26 320.67 119.79 334.83 144.31 363.15 144.31 377.31 119.79 363.15 95.26"/>
      <polygon class="cls-6" points="520.56 143.8 501.14 143.8 491.43 160.63 501.14 177.45 520.56 177.45 530.28 160.63 520.56 143.8"/>
      <polygon class="cls-6" points="579.59 79.08 555.63 79.08 543.65 99.83 555.63 120.58 579.59 120.58 591.57 99.83 579.59 79.08"/>
      <polygon class="cls-3" points="748.79 54.49 727.18 54.49 716.37 73.21 727.18 91.93 748.79 91.93 759.6 73.21 748.79 54.49"/>
      <polygon class="cls-2" points="831.56 139.07 805.53 139.07 792.51 161.62 805.53 184.16 831.56 184.16 844.58 161.62 831.56 139.07"/>
      <polygon class="cls-3" points="780.78 179.1 757.3 179.1 745.57 199.43 757.3 219.76 780.78 219.76 792.51 199.43 780.78 179.1"/>
      <polygon class="cls-3" points="392.37 128.78 383.39 128.78 378.9 136.55 383.39 144.33 392.37 144.33 396.86 136.55 392.37 128.78"/>
      <polygon class="cls-3" points="466.83 117.51 432.33 117.51 415.08 147.39 432.33 177.27 466.83 177.27 484.08 147.39 466.83 117.51"/>
      <polygon class="cls-5" points="417.79 80.65 394.52 80.65 382.88 100.81 394.52 120.96 417.79 120.96 429.43 100.81 417.79 80.65"/>
      <polygon class="cls-3" points="702.87 128.34 690.47 128.34 684.27 139.07 690.47 149.81 702.87 149.81 709.07 139.07 702.87 128.34"/>
      <polygon class="cls-3" points="284.42 96.77 272.02 96.77 265.82 107.51 272.02 118.25 284.42 118.25 290.62 107.51 284.42 96.77"/>
      <polygon class="cls-3" points="549.23 123.58 538.07 123.58 532.48 133.25 538.07 142.92 549.23 142.92 554.81 133.25 549.23 123.58"/>
      <polygon class="cls-5" points="864.86 175.89 846.31 175.89 837.04 191.95 846.31 208.02 864.86 208.02 874.13 191.95 864.86 175.89"/>
      <polygon class="cls-5" points="776.9 97.66 733.95 97.66 712.48 134.86 733.95 172.05 776.9 172.05 798.37 134.86 776.9 97.66"/>
      <polygon class="cls-2" points="848.83 56.04 805.88 56.04 784.4 93.23 805.88 130.43 848.83 130.43 870.3 93.23 848.83 56.04"/>
      <polygon class="cls-6" points="920.01 97.66 877.06 97.66 855.59 134.86 877.06 172.05 920.01 172.05 941.48 134.86 920.01 97.66"/>
      <circle class="cls-7" cx="922.63" cy="239.8" r="16.76"/>
      <circle class="cls-7" cx="1242.05" cy="53.75" r="16.76"/>
      <circle class="cls-7" cx="1173.78" cy="291.39" r="24.93"/>
      <circle class="cls-7" cx="616.45" cy="109.79" r="12.75"/>
      <circle class="cls-7" cx="949.85" cy="55.83" r="12.75"/>
      <circle class="cls-7" cx="750.36" cy="54.49" r="9.26"/>
      <circle class="cls-7" cx="844.58" cy="207.75" r="9.26"/>
      <circle class="cls-7" cx="361.76" cy="144.61" r="8.98"/>
    </g>
  </g>
</svg>