<?xml version="1.0" standalone="no"?>
<svg xmlns="http://www.w3.org/2000/svg" width="280" height="280" xmlns:xlink="http://www.w3.org/1999/xlink" viewBox="0 0 280 280"><defs><clipPath id="clip-path-background-color-1"><rect x="0" y="0" width="280" height="280"/></clipPath><clipPath id="clip-path-dot-color-1"><rect x="126" y="9" width="9" height="9" transform="rotate(0,130.5,13.5)"/><rect x="135" y="9" width="9" height="9" transform="rotate(0,139.5,13.5)"/><rect x="144" y="9" width="9" height="9" transform="rotate(0,148.5,13.5)"/><rect x="162" y="9" width="9" height="9" transform="rotate(0,166.5,13.5)"/><rect x="171" y="9" width="9" height="9" transform="rotate(0,175.5,13.5)"/><rect x="189" y="9" width="9" height="9" transform="rotate(0,193.5,13.5)"/><rect x="126" y="18" width="9" height="9" transform="rotate(0,130.5,22.5)"/><rect x="135" y="18" width="9" height="9" transform="rotate(0,139.5,22.5)"/><rect x="144" y="18" width="9" height="9" transform="rotate(0,148.5,22.5)"/><rect x="171" y="18" width="9" height="9" transform="rotate(0,175.5,22.5)"/><rect x="180" y="18" width="9" height="9" transform="rotate(0,184.5,22.5)"/><rect x="189" y="18" width="9" height="9" transform="rotate(0,193.5,22.5)"/><rect x="99" y="27" width="9" height="9" transform="rotate(0,103.5,31.5)"/><rect x="117" y="27" width="9" height="9" transform="rotate(0,121.5,31.5)"/><rect x="126" y="27" width="9" height="9" transform="rotate(0,130.5,31.5)"/><rect x="153" y="27" width="9" height="9" transform="rotate(0,157.5,31.5)"/><rect x="189" y="27" width="9" height="9" transform="rotate(0,193.5,31.5)"/><rect x="90" y="36" width="9" height="9" transform="rotate(0,94.5,40.5)"/><rect x="99" y="36" width="9" height="9" transform="rotate(0,103.5,40.5)"/><rect x="117" y="36" width="9" height="9" transform="rotate(0,121.5,40.5)"/><rect x="126" y="36" width="9" height="9" transform="rotate(0,130.5,40.5)"/><rect x="162" y="36" width="9" height="9" transform="rotate(0,166.5,40.5)"/><rect x="180" y="36" width="9" height="9" transform="rotate(0,184.5,40.5)"/><rect x="81" y="45" width="9" height="9" transform="rotate(0,85.5,49.5)"/><rect x="99" y="45" width="9" height="9" transform="rotate(0,103.5,49.5)"/><rect x="108" y="45" width="9" height="9" transform="rotate(0,112.5,49.5)"/><rect x="126" y="45" width="9" height="9" transform="rotate(0,130.5,49.5)"/><rect x="135" y="45" width="9" height="9" transform="rotate(0,139.5,49.5)"/><rect x="162" y="45" width="9" height="9" transform="rotate(0,166.5,49.5)"/><rect x="180" y="45" width="9" height="9" transform="rotate(0,184.5,49.5)"/><rect x="189" y="45" width="9" height="9" transform="rotate(0,193.5,49.5)"/><rect x="99" y="54" width="9" height="9" transform="rotate(0,103.5,58.5)"/><rect x="108" y="54" width="9" height="9" transform="rotate(0,112.5,58.5)"/><rect x="117" y="54" width="9" height="9" transform="rotate(0,121.5,58.5)"/><rect x="126" y="54" width="9" height="9" transform="rotate(0,130.5,58.5)"/><rect x="180" y="54" width="9" height="9" transform="rotate(0,184.5,58.5)"/><rect x="189" y="54" width="9" height="9" transform="rotate(0,193.5,58.5)"/><rect x="81" y="63" width="9" height="9" transform="rotate(0,85.5,67.5)"/><rect x="99" y="63" width="9" height="9" transform="rotate(0,103.5,67.5)"/><rect x="117" y="63" width="9" height="9" transform="rotate(0,121.5,67.5)"/><rect x="135" y="63" width="9" height="9" transform="rotate(0,139.5,67.5)"/><rect x="153" y="63" width="9" height="9" transform="rotate(0,157.5,67.5)"/><rect x="171" y="63" width="9" height="9" transform="rotate(0,175.5,67.5)"/><rect x="189" y="63" width="9" height="9" transform="rotate(0,193.5,67.5)"/><rect x="81" y="72" width="9" height="9" transform="rotate(0,85.5,76.5)"/><rect x="99" y="72" width="9" height="9" transform="rotate(0,103.5,76.5)"/><rect x="162" y="72" width="9" height="9" transform="rotate(0,166.5,76.5)"/><rect x="171" y="72" width="9" height="9" transform="rotate(0,175.5,76.5)"/><rect x="189" y="72" width="9" height="9" transform="rotate(0,193.5,76.5)"/><rect x="27" y="81" width="9" height="9" transform="rotate(0,31.5,85.5)"/><rect x="36" y="81" width="9" height="9" transform="rotate(0,40.5,85.5)"/><rect x="63" y="81" width="9" height="9" transform="rotate(0,67.5,85.5)"/><rect x="72" y="81" width="9" height="9" transform="rotate(0,76.5,85.5)"/><rect x="81" y="81" width="9" height="9" transform="rotate(0,85.5,85.5)"/><rect x="90" y="81" width="9" height="9" transform="rotate(0,94.5,85.5)"/><rect x="99" y="81" width="9" height="9" transform="rotate(0,103.5,85.5)"/><rect x="108" y="81" width="9" height="9" transform="rotate(0,112.5,85.5)"/><rect x="126" y="81" width="9" height="9" transform="rotate(0,130.5,85.5)"/><rect x="135" y="81" width="9" height="9" transform="rotate(0,139.5,85.5)"/><rect x="144" y="81" width="9" height="9" transform="rotate(0,148.5,85.5)"/><rect x="153" y="81" width="9" height="9" transform="rotate(0,157.5,85.5)"/><rect x="180" y="81" width="9" height="9" transform="rotate(0,184.5,85.5)"/><rect x="198" y="81" width="9" height="9" transform="rotate(0,202.5,85.5)"/><rect x="207" y="81" width="9" height="9" transform="rotate(0,211.5,85.5)"/><rect x="225" y="81" width="9" height="9" transform="rotate(0,229.5,85.5)"/><rect x="9" y="90" width="9" height="9" transform="rotate(0,13.5,94.5)"/><rect x="18" y="90" width="9" height="9" transform="rotate(0,22.5,94.5)"/><rect x="36" y="90" width="9" height="9" transform="rotate(0,40.5,94.5)"/><rect x="45" y="90" width="9" height="9" transform="rotate(0,49.5,94.5)"/><rect x="54" y="90" width="9" height="9" transform="rotate(0,58.5,94.5)"/><rect x="72" y="90" width="9" height="9" transform="rotate(0,76.5,94.5)"/><rect x="81" y="90" width="9" height="9" transform="rotate(0,85.5,94.5)"/><rect x="90" y="90" width="9" height="9" transform="rotate(0,94.5,94.5)"/><rect x="117" y="90" width="9" height="9" transform="rotate(0,121.5,94.5)"/><rect x="126" y="90" width="9" height="9" transform="rotate(0,130.5,94.5)"/><rect x="135" y="90" width="9" height="9" transform="rotate(0,139.5,94.5)"/><rect x="162" y="90" width="9" height="9" transform="rotate(0,166.5,94.5)"/><rect x="207" y="90" width="9" height="9" transform="rotate(0,211.5,94.5)"/><rect x="216" y="90" width="9" height="9" transform="rotate(0,220.5,94.5)"/><rect x="225" y="90" width="9" height="9" transform="rotate(0,229.5,94.5)"/><rect x="234" y="90" width="9" height="9" transform="rotate(0,238.5,94.5)"/><rect x="243" y="90" width="9" height="9" transform="rotate(0,247.5,94.5)"/><rect x="261" y="90" width="9" height="9" transform="rotate(0,265.5,94.5)"/><rect x="18" y="99" width="9" height="9" transform="rotate(0,22.5,103.5)"/><rect x="36" y="99" width="9" height="9" transform="rotate(0,40.5,103.5)"/><rect x="45" y="99" width="9" height="9" transform="rotate(0,49.5,103.5)"/><rect x="63" y="99" width="9" height="9" transform="rotate(0,67.5,103.5)"/><rect x="72" y="99" width="9" height="9" transform="rotate(0,76.5,103.5)"/><rect x="90" y="99" width="9" height="9" transform="rotate(0,94.5,103.5)"/><rect x="108" y="99" width="9" height="9" transform="rotate(0,112.5,103.5)"/><rect x="126" y="99" width="9" height="9" transform="rotate(0,130.5,103.5)"/><rect x="153" y="99" width="9" height="9" transform="rotate(0,157.5,103.5)"/><rect x="171" y="99" width="9" height="9" transform="rotate(0,175.5,103.5)"/><rect x="189" y="99" width="9" height="9" transform="rotate(0,193.5,103.5)"/><rect x="207" y="99" width="9" height="9" transform="rotate(0,211.5,103.5)"/><rect x="252" y="99" width="9" height="9" transform="rotate(0,256.5,103.5)"/><rect x="27" y="108" width="9" height="9" transform="rotate(0,31.5,112.5)"/><rect x="45" y="108" width="9" height="9" transform="rotate(0,49.5,112.5)"/><rect x="90" y="108" width="9" height="9" transform="rotate(0,94.5,112.5)"/><rect x="99" y="108" width="9" height="9" transform="rotate(0,103.5,112.5)"/><rect x="108" y="108" width="9" height="9" transform="rotate(0,112.5,112.5)"/><rect x="144" y="108" width="9" height="9" transform="rotate(0,148.5,112.5)"/><rect x="171" y="108" width="9" height="9" transform="rotate(0,175.5,112.5)"/><rect x="180" y="108" width="9" height="9" transform="rotate(0,184.5,112.5)"/><rect x="225" y="108" width="9" height="9" transform="rotate(0,229.5,112.5)"/><rect x="261" y="108" width="9" height="9" transform="rotate(0,265.5,112.5)"/><rect x="9" y="117" width="9" height="9" transform="rotate(0,13.5,121.5)"/><rect x="18" y="117" width="9" height="9" transform="rotate(0,22.5,121.5)"/><rect x="45" y="117" width="9" height="9" transform="rotate(0,49.5,121.5)"/><rect x="63" y="117" width="9" height="9" transform="rotate(0,67.5,121.5)"/><rect x="108" y="117" width="9" height="9" transform="rotate(0,112.5,121.5)"/><rect x="126" y="117" width="9" height="9" transform="rotate(0,130.5,121.5)"/><rect x="180" y="117" width="9" height="9" transform="rotate(0,184.5,121.5)"/><rect x="198" y="117" width="9" height="9" transform="rotate(0,202.5,121.5)"/><rect x="216" y="117" width="9" height="9" transform="rotate(0,220.5,121.5)"/><rect x="243" y="117" width="9" height="9" transform="rotate(0,247.5,121.5)"/><rect x="252" y="117" width="9" height="9" transform="rotate(0,256.5,121.5)"/><rect x="261" y="117" width="9" height="9" transform="rotate(0,265.5,121.5)"/><rect x="9" y="126" width="9" height="9" transform="rotate(0,13.5,130.5)"/><rect x="18" y="126" width="9" height="9" transform="rotate(0,22.5,130.5)"/><rect x="36" y="126" width="9" height="9" transform="rotate(0,40.5,130.5)"/><rect x="45" y="126" width="9" height="9" transform="rotate(0,49.5,130.5)"/><rect x="72" y="126" width="9" height="9" transform="rotate(0,76.5,130.5)"/><rect x="90" y="126" width="9" height="9" transform="rotate(0,94.5,130.5)"/><rect x="99" y="126" width="9" height="9" transform="rotate(0,103.5,130.5)"/><rect x="108" y="126" width="9" height="9" transform="rotate(0,112.5,130.5)"/><rect x="135" y="126" width="9" height="9" transform="rotate(0,139.5,130.5)"/><rect x="162" y="126" width="9" height="9" transform="rotate(0,166.5,130.5)"/><rect x="171" y="126" width="9" height="9" transform="rotate(0,175.5,130.5)"/><rect x="180" y="126" width="9" height="9" transform="rotate(0,184.5,130.5)"/><rect x="207" y="126" width="9" height="9" transform="rotate(0,211.5,130.5)"/><rect x="216" y="126" width="9" height="9" transform="rotate(0,220.5,130.5)"/><rect x="234" y="126" width="9" height="9" transform="rotate(0,238.5,130.5)"/><rect x="243" y="126" width="9" height="9" transform="rotate(0,247.5,130.5)"/><rect x="261" y="126" width="9" height="9" transform="rotate(0,265.5,130.5)"/><rect x="18" y="135" width="9" height="9" transform="rotate(0,22.5,139.5)"/><rect x="54" y="135" width="9" height="9" transform="rotate(0,58.5,139.5)"/><rect x="63" y="135" width="9" height="9" transform="rotate(0,67.5,139.5)"/><rect x="81" y="135" width="9" height="9" transform="rotate(0,85.5,139.5)"/><rect x="90" y="135" width="9" height="9" transform="rotate(0,94.5,139.5)"/><rect x="99" y="135" width="9" height="9" transform="rotate(0,103.5,139.5)"/><rect x="135" y="135" width="9" height="9" transform="rotate(0,139.5,139.5)"/><rect x="153" y="135" width="9" height="9" transform="rotate(0,157.5,139.5)"/><rect x="180" y="135" width="9" height="9" transform="rotate(0,184.5,139.5)"/><rect x="189" y="135" width="9" height="9" transform="rotate(0,193.5,139.5)"/><rect x="216" y="135" width="9" height="9" transform="rotate(0,220.5,139.5)"/><rect x="225" y="135" width="9" height="9" transform="rotate(0,229.5,139.5)"/><rect x="234" y="135" width="9" height="9" transform="rotate(0,238.5,139.5)"/><rect x="252" y="135" width="9" height="9" transform="rotate(0,256.5,139.5)"/><rect x="261" y="135" width="9" height="9" transform="rotate(0,265.5,139.5)"/><rect x="9" y="144" width="9" height="9" transform="rotate(0,13.5,148.5)"/><rect x="18" y="144" width="9" height="9" transform="rotate(0,22.5,148.5)"/><rect x="27" y="144" width="9" height="9" transform="rotate(0,31.5,148.5)"/><rect x="72" y="144" width="9" height="9" transform="rotate(0,76.5,148.5)"/><rect x="81" y="144" width="9" height="9" transform="rotate(0,85.5,148.5)"/><rect x="99" y="144" width="9" height="9" transform="rotate(0,103.5,148.5)"/><rect x="126" y="144" width="9" height="9" transform="rotate(0,130.5,148.5)"/><rect x="171" y="144" width="9" height="9" transform="rotate(0,175.5,148.5)"/><rect x="180" y="144" width="9" height="9" transform="rotate(0,184.5,148.5)"/><rect x="189" y="144" width="9" height="9" transform="rotate(0,193.5,148.5)"/><rect x="225" y="144" width="9" height="9" transform="rotate(0,229.5,148.5)"/><rect x="234" y="144" width="9" height="9" transform="rotate(0,238.5,148.5)"/><rect x="9" y="153" width="9" height="9" transform="rotate(0,13.5,157.5)"/><rect x="18" y="153" width="9" height="9" transform="rotate(0,22.5,157.5)"/><rect x="63" y="153" width="9" height="9" transform="rotate(0,67.5,157.5)"/><rect x="90" y="153" width="9" height="9" transform="rotate(0,94.5,157.5)"/><rect x="99" y="153" width="9" height="9" transform="rotate(0,103.5,157.5)"/><rect x="117" y="153" width="9" height="9" transform="rotate(0,121.5,157.5)"/><rect x="126" y="153" width="9" height="9" transform="rotate(0,130.5,157.5)"/><rect x="144" y="153" width="9" height="9" transform="rotate(0,148.5,157.5)"/><rect x="153" y="153" width="9" height="9" transform="rotate(0,157.5,157.5)"/><rect x="189" y="153" width="9" height="9" transform="rotate(0,193.5,157.5)"/><rect x="216" y="153" width="9" height="9" transform="rotate(0,220.5,157.5)"/><rect x="225" y="153" width="9" height="9" transform="rotate(0,229.5,157.5)"/><rect x="234" y="153" width="9" height="9" transform="rotate(0,238.5,157.5)"/><rect x="261" y="153" width="9" height="9" transform="rotate(0,265.5,157.5)"/><rect x="18" y="162" width="9" height="9" transform="rotate(0,22.5,166.5)"/><rect x="45" y="162" width="9" height="9" transform="rotate(0,49.5,166.5)"/><rect x="72" y="162" width="9" height="9" transform="rotate(0,76.5,166.5)"/><rect x="99" y="162" width="9" height="9" transform="rotate(0,103.5,166.5)"/><rect x="126" y="162" width="9" height="9" transform="rotate(0,130.5,166.5)"/><rect x="135" y="162" width="9" height="9" transform="rotate(0,139.5,166.5)"/><rect x="171" y="162" width="9" height="9" transform="rotate(0,175.5,166.5)"/><rect x="189" y="162" width="9" height="9" transform="rotate(0,193.5,166.5)"/><rect x="198" y="162" width="9" height="9" transform="rotate(0,202.5,166.5)"/><rect x="216" y="162" width="9" height="9" transform="rotate(0,220.5,166.5)"/><rect x="234" y="162" width="9" height="9" transform="rotate(0,238.5,166.5)"/><rect x="243" y="162" width="9" height="9" transform="rotate(0,247.5,166.5)"/><rect x="9" y="171" width="9" height="9" transform="rotate(0,13.5,175.5)"/><rect x="27" y="171" width="9" height="9" transform="rotate(0,31.5,175.5)"/><rect x="45" y="171" width="9" height="9" transform="rotate(0,49.5,175.5)"/><rect x="54" y="171" width="9" height="9" transform="rotate(0,58.5,175.5)"/><rect x="63" y="171" width="9" height="9" transform="rotate(0,67.5,175.5)"/><rect x="72" y="171" width="9" height="9" transform="rotate(0,76.5,175.5)"/><rect x="99" y="171" width="9" height="9" transform="rotate(0,103.5,175.5)"/><rect x="135" y="171" width="9" height="9" transform="rotate(0,139.5,175.5)"/><rect x="144" y="171" width="9" height="9" transform="rotate(0,148.5,175.5)"/><rect x="153" y="171" width="9" height="9" transform="rotate(0,157.5,175.5)"/><rect x="171" y="171" width="9" height="9" transform="rotate(0,175.5,175.5)"/><rect x="189" y="171" width="9" height="9" transform="rotate(0,193.5,175.5)"/><rect x="207" y="171" width="9" height="9" transform="rotate(0,211.5,175.5)"/><rect x="216" y="171" width="9" height="9" transform="rotate(0,220.5,175.5)"/><rect x="234" y="171" width="9" height="9" transform="rotate(0,238.5,175.5)"/><rect x="243" y="171" width="9" height="9" transform="rotate(0,247.5,175.5)"/><rect x="36" y="180" width="9" height="9" transform="rotate(0,40.5,184.5)"/><rect x="45" y="180" width="9" height="9" transform="rotate(0,49.5,184.5)"/><rect x="90" y="180" width="9" height="9" transform="rotate(0,94.5,184.5)"/><rect x="117" y="180" width="9" height="9" transform="rotate(0,121.5,184.5)"/><rect x="135" y="180" width="9" height="9" transform="rotate(0,139.5,184.5)"/><rect x="153" y="180" width="9" height="9" transform="rotate(0,157.5,184.5)"/><rect x="162" y="180" width="9" height="9" transform="rotate(0,166.5,184.5)"/><rect x="180" y="180" width="9" height="9" transform="rotate(0,184.5,184.5)"/><rect x="198" y="180" width="9" height="9" transform="rotate(0,202.5,184.5)"/><rect x="207" y="180" width="9" height="9" transform="rotate(0,211.5,184.5)"/><rect x="216" y="180" width="9" height="9" transform="rotate(0,220.5,184.5)"/><rect x="225" y="180" width="9" height="9" transform="rotate(0,229.5,184.5)"/><rect x="243" y="180" width="9" height="9" transform="rotate(0,247.5,184.5)"/><rect x="261" y="180" width="9" height="9" transform="rotate(0,265.5,184.5)"/><rect x="18" y="189" width="9" height="9" transform="rotate(0,22.5,193.5)"/><rect x="45" y="189" width="9" height="9" transform="rotate(0,49.5,193.5)"/><rect x="54" y="189" width="9" height="9" transform="rotate(0,58.5,193.5)"/><rect x="63" y="189" width="9" height="9" transform="rotate(0,67.5,193.5)"/><rect x="108" y="189" width="9" height="9" transform="rotate(0,112.5,193.5)"/><rect x="117" y="189" width="9" height="9" transform="rotate(0,121.5,193.5)"/><rect x="126" y="189" width="9" height="9" transform="rotate(0,130.5,193.5)"/><rect x="135" y="189" width="9" height="9" transform="rotate(0,139.5,193.5)"/><rect x="144" y="189" width="9" height="9" transform="rotate(0,148.5,193.5)"/><rect x="153" y="189" width="9" height="9" transform="rotate(0,157.5,193.5)"/><rect x="162" y="189" width="9" height="9" transform="rotate(0,166.5,193.5)"/><rect x="171" y="189" width="9" height="9" transform="rotate(0,175.5,193.5)"/><rect x="180" y="189" width="9" height="9" transform="rotate(0,184.5,193.5)"/><rect x="189" y="189" width="9" height="9" transform="rotate(0,193.5,193.5)"/><rect x="198" y="189" width="9" height="9" transform="rotate(0,202.5,193.5)"/><rect x="207" y="189" width="9" height="9" transform="rotate(0,211.5,193.5)"/><rect x="216" y="189" width="9" height="9" transform="rotate(0,220.5,193.5)"/><rect x="225" y="189" width="9" height="9" transform="rotate(0,229.5,193.5)"/><rect x="234" y="189" width="9" height="9" transform="rotate(0,238.5,193.5)"/><rect x="243" y="189" width="9" height="9" transform="rotate(0,247.5,193.5)"/><rect x="252" y="189" width="9" height="9" transform="rotate(0,256.5,193.5)"/><rect x="261" y="189" width="9" height="9" transform="rotate(0,265.5,193.5)"/><rect x="81" y="198" width="9" height="9" transform="rotate(0,85.5,202.5)"/><rect x="90" y="198" width="9" height="9" transform="rotate(0,94.5,202.5)"/><rect x="135" y="198" width="9" height="9" transform="rotate(0,139.5,202.5)"/><rect x="153" y="198" width="9" height="9" transform="rotate(0,157.5,202.5)"/><rect x="180" y="198" width="9" height="9" transform="rotate(0,184.5,202.5)"/><rect x="189" y="198" width="9" height="9" transform="rotate(0,193.5,202.5)"/><rect x="225" y="198" width="9" height="9" transform="rotate(0,229.5,202.5)"/><rect x="234" y="198" width="9" height="9" transform="rotate(0,238.5,202.5)"/><rect x="252" y="198" width="9" height="9" transform="rotate(0,256.5,202.5)"/><rect x="261" y="198" width="9" height="9" transform="rotate(0,265.5,202.5)"/><rect x="81" y="207" width="9" height="9" transform="rotate(0,85.5,211.5)"/><rect x="126" y="207" width="9" height="9" transform="rotate(0,130.5,211.5)"/><rect x="135" y="207" width="9" height="9" transform="rotate(0,139.5,211.5)"/><rect x="153" y="207" width="9" height="9" transform="rotate(0,157.5,211.5)"/><rect x="180" y="207" width="9" height="9" transform="rotate(0,184.5,211.5)"/><rect x="189" y="207" width="9" height="9" transform="rotate(0,193.5,211.5)"/><rect x="207" y="207" width="9" height="9" transform="rotate(0,211.5,211.5)"/><rect x="225" y="207" width="9" height="9" transform="rotate(0,229.5,211.5)"/><rect x="243" y="207" width="9" height="9" transform="rotate(0,247.5,211.5)"/><rect x="252" y="207" width="9" height="9" transform="rotate(0,256.5,211.5)"/><rect x="99" y="216" width="9" height="9" transform="rotate(0,103.5,220.5)"/><rect x="108" y="216" width="9" height="9" transform="rotate(0,112.5,220.5)"/><rect x="126" y="216" width="9" height="9" transform="rotate(0,130.5,220.5)"/><rect x="135" y="216" width="9" height="9" transform="rotate(0,139.5,220.5)"/><rect x="144" y="216" width="9" height="9" transform="rotate(0,148.5,220.5)"/><rect x="189" y="216" width="9" height="9" transform="rotate(0,193.5,220.5)"/><rect x="225" y="216" width="9" height="9" transform="rotate(0,229.5,220.5)"/><rect x="261" y="216" width="9" height="9" transform="rotate(0,265.5,220.5)"/><rect x="108" y="225" width="9" height="9" transform="rotate(0,112.5,229.5)"/><rect x="117" y="225" width="9" height="9" transform="rotate(0,121.5,229.5)"/><rect x="126" y="225" width="9" height="9" transform="rotate(0,130.5,229.5)"/><rect x="144" y="225" width="9" height="9" transform="rotate(0,148.5,229.5)"/><rect x="162" y="225" width="9" height="9" transform="rotate(0,166.5,229.5)"/><rect x="171" y="225" width="9" height="9" transform="rotate(0,175.5,229.5)"/><rect x="189" y="225" width="9" height="9" transform="rotate(0,193.5,229.5)"/><rect x="198" y="225" width="9" height="9" transform="rotate(0,202.5,229.5)"/><rect x="207" y="225" width="9" height="9" transform="rotate(0,211.5,229.5)"/><rect x="216" y="225" width="9" height="9" transform="rotate(0,220.5,229.5)"/><rect x="225" y="225" width="9" height="9" transform="rotate(0,229.5,229.5)"/><rect x="234" y="225" width="9" height="9" transform="rotate(0,238.5,229.5)"/><rect x="243" y="225" width="9" height="9" transform="rotate(0,247.5,229.5)"/><rect x="261" y="225" width="9" height="9" transform="rotate(0,265.5,229.5)"/><rect x="81" y="234" width="9" height="9" transform="rotate(0,85.5,238.5)"/><rect x="90" y="234" width="9" height="9" transform="rotate(0,94.5,238.5)"/><rect x="108" y="234" width="9" height="9" transform="rotate(0,112.5,238.5)"/><rect x="117" y="234" width="9" height="9" transform="rotate(0,121.5,238.5)"/><rect x="153" y="234" width="9" height="9" transform="rotate(0,157.5,238.5)"/><rect x="180" y="234" width="9" height="9" transform="rotate(0,184.5,238.5)"/><rect x="225" y="234" width="9" height="9" transform="rotate(0,229.5,238.5)"/><rect x="234" y="234" width="9" height="9" transform="rotate(0,238.5,238.5)"/><rect x="252" y="234" width="9" height="9" transform="rotate(0,256.5,238.5)"/><rect x="81" y="243" width="9" height="9" transform="rotate(0,85.5,247.5)"/><rect x="90" y="243" width="9" height="9" transform="rotate(0,94.5,247.5)"/><rect x="126" y="243" width="9" height="9" transform="rotate(0,130.5,247.5)"/><rect x="144" y="243" width="9" height="9" transform="rotate(0,148.5,247.5)"/><rect x="162" y="243" width="9" height="9" transform="rotate(0,166.5,247.5)"/><rect x="189" y="243" width="9" height="9" transform="rotate(0,193.5,247.5)"/><rect x="216" y="243" width="9" height="9" transform="rotate(0,220.5,247.5)"/><rect x="243" y="243" width="9" height="9" transform="rotate(0,247.5,247.5)"/><rect x="261" y="243" width="9" height="9" transform="rotate(0,265.5,247.5)"/><rect x="99" y="252" width="9" height="9" transform="rotate(0,103.5,256.5)"/><rect x="117" y="252" width="9" height="9" transform="rotate(0,121.5,256.5)"/><rect x="153" y="252" width="9" height="9" transform="rotate(0,157.5,256.5)"/><rect x="180" y="252" width="9" height="9" transform="rotate(0,184.5,256.5)"/><rect x="189" y="252" width="9" height="9" transform="rotate(0,193.5,256.5)"/><rect x="198" y="252" width="9" height="9" transform="rotate(0,202.5,256.5)"/><rect x="225" y="252" width="9" height="9" transform="rotate(0,229.5,256.5)"/><rect x="234" y="252" width="9" height="9" transform="rotate(0,238.5,256.5)"/><rect x="252" y="252" width="9" height="9" transform="rotate(0,256.5,256.5)"/><rect x="90" y="261" width="9" height="9" transform="rotate(0,94.5,265.5)"/><rect x="108" y="261" width="9" height="9" transform="rotate(0,112.5,265.5)"/><rect x="153" y="261" width="9" height="9" transform="rotate(0,157.5,265.5)"/><rect x="189" y="261" width="9" height="9" transform="rotate(0,193.5,265.5)"/><rect x="216" y="261" width="9" height="9" transform="rotate(0,220.5,265.5)"/><rect x="252" y="261" width="9" height="9" transform="rotate(0,256.5,265.5)"/></clipPath><clipPath id="clip-path-corners-square-color-0-0-1"><path clip-rule="evenodd" d="M 9 9v 63h 63v -63zM 18 18h 45v 45h -45z" transform="rotate(0,40.5,40.5)"/></clipPath><clipPath id="clip-path-corners-dot-color-0-0-1"><rect x="27" y="27" width="27" height="27" transform="rotate(0,40.5,40.5)"/></clipPath><clipPath id="clip-path-corners-square-color-1-0-1"><path clip-rule="evenodd" d="M 207 9v 63h 63v -63zM 216 18h 45v 45h -45z" transform="rotate(90,238.5,40.5)"/></clipPath><clipPath id="clip-path-corners-dot-color-1-0-1"><rect x="225" y="27" width="27" height="27" transform="rotate(90,238.5,40.5)"/></clipPath><clipPath id="clip-path-corners-square-color-0-1-1"><path clip-rule="evenodd" d="M 9 207v 63h 63v -63zM 18 216h 45v 45h -45z" transform="rotate(-90,40.5,238.5)"/></clipPath><clipPath id="clip-path-corners-dot-color-0-1-1"><rect x="27" y="225" width="27" height="27" transform="rotate(-90,40.5,238.5)"/></clipPath></defs><rect x="0" y="0" height="280" width="280" clip-path="url('#clip-path-background-color-1')" fill="#ffffff"/><rect x="0" y="0" height="280" width="280" clip-path="url('#clip-path-dot-color-1')" fill="#000000"/><rect x="9" y="9" height="63" width="63" clip-path="url('#clip-path-corners-square-color-0-0-1')" fill="#000000"/><rect x="27" y="27" height="27" width="27" clip-path="url('#clip-path-corners-dot-color-0-0-1')" fill="#000000"/><rect x="207" y="9" height="63" width="63" clip-path="url('#clip-path-corners-square-color-1-0-1')" fill="#000000"/><rect x="225" y="27" height="27" width="27" clip-path="url('#clip-path-corners-dot-color-1-0-1')" fill="#000000"/><rect x="9" y="207" height="63" width="63" clip-path="url('#clip-path-corners-square-color-0-1-1')" fill="#000000"/><rect x="27" y="225" height="27" width="27" clip-path="url('#clip-path-corners-dot-color-0-1-1')" fill="#000000"/></svg>